PathFileType	4	(X/Y/Z)	Kaydara	
DataRate	CameraRate	NumFrames	NumMarkers	Units	OrigDataRate	OrigDataStartFrame	OrigNumFrames	
120.00	120.00	4	72	mm	120.00	131	261	
Frame#	Time	Hips			RightUpLeg			RightLeg			RightFoot			RightFoot_End			LeftUpLeg			LeftLeg			LeftFoot			LeftFoot_End			Spine			Spine1			Spine2			Spine3			Neck			Head			Head_End			RightShoulder			RightArm			RightForeArm			RightHand			RightHandThumb1			RightHandThumb2			RightHandThumb3			RightHandThumb3_End			RightInHandIndex			RightHandIndex1			RightHandIndex2			RightHandIndex3			RightHandIndex3_End			RightInHandMiddle			RightHandMiddle1			RightHandMiddle2			RightHandMiddle3			RightHandMiddle3_End			RightInHandRing			RightHandRing1			RightHandRing2			RightHandRing3			RightHandRing3_End			RightInHandPinky			RightHandPinky1			RightHandPinky2			RightHandPinky3			RightHandPinky3_End			LeftShoulder			LeftArm			LeftForeArm			LeftHand			LeftHandThumb1			LeftHandThumb2			LeftHandThumb3			LeftHandThumb3_End			LeftInHandIndex			LeftHandIndex1			LeftHandIndex2			LeftHandIndex3			LeftHandIndex3_End			LeftInHandMiddle			LeftHandMiddle1			LeftHandMiddle2			LeftHandMiddle3			LeftHandMiddle3_End			LeftInHandRing			LeftHandRing1			LeftHandRing2			LeftHandRing3			LeftHandRing3_End			LeftInHandPinky			LeftHandPinky1			LeftHandPinky2			LeftHandPinky3			LeftHandPinky3_End			
		X1	Y1	Z1	X2	Y2	Z2	X3	Y3	Z3	X4	Y4	Z4	X5	Y5	Z5	X6	Y6	Z6	X7	Y7	Z7	X8	Y8	Z8	X9	Y9	Z9	X10	Y10	Z10	X11	Y11	Z11	X12	Y12	Z12	X13	Y13	Z13	X14	Y14	Z14	X15	Y15	Z15	X16	Y16	Z16	X17	Y17	Z17	X18	Y18	Z18	X19	Y19	Z19	X20	Y20	Z20	X21	Y21	Z21	X22	Y22	Z22	X23	Y23	Z23	X24	Y24	Z24	X25	Y25	Z25	X26	Y26	Z26	X27	Y27	Z27	X28	Y28	Z28	X29	Y29	Z29	X30	Y30	Z30	X31	Y31	Z31	X32	Y32	Z32	X33	Y33	Z33	X34	Y34	Z34	X35	Y35	Z35	X36	Y36	Z36	X37	Y37	Z37	X38	Y38	Z38	X39	Y39	Z39	X40	Y40	Z40	X41	Y41	Z41	X42	Y42	Z42	X43	Y43	Z43	X44	Y44	Z44	X45	Y45	Z45	X46	Y46	Z46	X47	Y47	Z47	X48	Y48	Z48	X49	Y49	Z49	X50	Y50	Z50	X51	Y51	Z51	X52	Y52	Z52	X53	Y53	Z53	X54	Y54	Z54	X55	Y55	Z55	X56	Y56	Z56	X57	Y57	Z57	X58	Y58	Z58	X59	Y59	Z59	X60	Y60	Z60	X61	Y61	Z61	X62	Y62	Z62	X63	Y63	Z63	X64	Y64	Z64	X65	Y65	Z65	X66	Y66	Z66	X67	Y67	Z67	X68	Y68	Z68	X69	Y69	Z69	X70	Y70	Z70	X71	Y71	Z71	X72	Y72	Z72	

131	1.083	1081.203	893.81699	129.612	1159.533087497306	894.8410487410032	92.79656650418697	1047.9636431113652	493.95632109258776	47.12676603285693	1055.7993786026727	113.47662261515369	17.37245167501313	949.1336531639249	39.665419065299304	157.26531922994903	1014.4361500070261	866.5893720680265	180.6343695696505	907.5357628268756	479.0246180191588	297.1339911005898	788.8217680255317	86.08579003381548	457.51838145436693	644.2983787802295	39.390682190938925	342.44448460626035	1027.2216291433072	1014.5392653274074	75.73197037079481	972.5031908678935	1077.4425564621026	26.10407797532719	911.731755349948	1137.2242635049424	-28.240829166779317	848.9265341107939	1185.3006213355256	-84.63874092568513	780.0493329757071	1237.7720308642809	-141.91117406119895	707.5529850851259	1278.6857213298172	-185.5493557064812	568.3764276513289	1355.6320932351148	-197.47930315010416	823.5774614211887	1233.2790508942696	-136.06723724095076	901.8034715233032	1280.5357770439039	-192.841973887814	1021.1620493847555	1096.715416220846	-275.74514231251715	1193.210621174316	1032.2975797617062	-379.28490420813824	1205.3844884648893	1054.3026806612236	-396.92239787851065	1208.0490927554588	1060.1380951226793	-425.3093544635814	1211.1533647909398	1060.4099500300297	-444.92812121860334	1214.8094455096505	1057.392675412703	-461.15519599772585	1212.6232618085605	1043.4261662749852	-397.16967741744645	1239.7946219492583	1043.3475940994342	-427.5573738723038	1249.9122839714398	1039.566463894955	-453.1566785782197	1248.251541533402	1038.26526749678	-469.27985604812636	1241.5138163356978	1037.8961820540137	-482.76535420325854	1214.655814039254	1032.938321717805	-395.9159092920513	1242.2598520565375	1027.189864490864	-424.8757293951178	1253.469323541108	1021.6756549277322	-452.55122095819763	1251.5467999767486	1019.4396257902998	-471.8792114429028	1244.2139364413463	1018.7119234027115	-486.574509419578	1215.5012731470877	1025.543685748092	-394.2145308159979	1241.274793988446	1014.010982339037	-418.5739409805639	1251.1731733535075	1007.7947698234574	-442.3866605201547	1249.3868021045382	1004.8891342634864	-460.86575953117045	1242.5242948669725	1003.8500928079461	-474.60519701141766	1214.8784576830824	1016.9205722983255	-391.68947072370605	1238.487646654985	1001.0704492286117	-412.3502006108765	1246.5007058807316	993.9431348238594	-430.82999304450215	1245.2397110025015	990.7839322129536	-444.0240346361399	1239.1848098438984	989.2650624281581	-456.03108945735465	782.222183956893	1206.0013056088976	-110.22706137781982	721.363782319525	1120.7619813081037	-75.54512070337914	916.8627477634747	1055.9872769972808	-179.4314373157303	1114.3376743047565	1027.7143277319014	-278.2397929386045	1129.092709723488	1052.5582249953338	-286.96880011255905	1156.2132877342258	1061.8870103322204	-278.34202517084725	1176.9150133630708	1064.6952183788949	-272.1579048705117	1195.7257957235813	1063.8810024608474	-266.8515275136291	1136.606490559545	1042.335447534969	-289.0125364560151	1178.8710151461	1047.8835492527824	-296.6994810964197	1210.1317750970456	1047.9006639513977	-292.0317265714019	1225.8233747256959	1048.3754100083631	-283.1786315156916	1236.286400262081	1049.0814223941138	-271.8366803694731	1140.1597111351339	1031.927898352462	-287.78899402857417	1183.3046663670375	1031.7109915257222	-294.62764471382224	1217.7504402611032	1030.333623149628	-289.3353254667025	1236.8420606214497	1030.236465955372	-278.5589174482186	1248.368428264472	1030.6832963424051	-266.1023616345872	1141.593030657487	1024.4494002547153	-286.8304915702619	1181.5081582064868	1017.8100295066141	-292.4259254633301	1211.8046485016303	1015.1827559129338	-287.597921132301	1230.365245402897	1014.3313718847362	-277.08893974338866	1241.271715665998	1014.3924388046108	-265.3224663995673	1142.0087474096447	1015.543077831982	-284.69883722245606	1178.8936314271045	1004.0183214345719	-288.861822682449	1203.4064389798011	999.7174599670387	-284.6348603364384	1217.0667556077224	998.0336706306124	-276.79499368247656	1226.7984165570101	997.4761374061528	-266.27135028786466
132	1.092	1081.203	893.81699	129.612	1158.9762124244758	894.5137823945124	92.66975104344512	1047.5663968005742	493.5769974529084	47.31975843031265	1056.3884661437937	113.54317213539488	16.682548370445673	950.0727868385896	39.50137374304872	156.58336714941245	1014.9741196799098	866.9081417819706	180.7637579114394	908.0272979849942	479.34820457642786	297.2122663835462	789.3682617439965	86.21891792315907	456.929714875408	644.8941751658501	39.38252408508313	341.88206454725287	1027.3717616275803	1014.5783457039319	75.67492194812952	972.7159398293718	1077.5443467470805	26.054346827410033	912.003663597915	1137.404277020597	-28.272549506053107	849.2417660618414	1185.5757312303697	-84.6364888966167	780.4152121114715	1238.1418665484455	-141.88227424540875	708.0077060456468	1279.1770028688682	-185.52893673509072	568.8321865324133	1356.1046784326734	-197.51392739048202	823.7734914032094	1233.444916172566	-136.01743478806176	901.4315279221846	1280.1212744378233	-192.45604881189513	1020.5128573295528	1096.972713424838	-274.1430436021693	1191.2293272237355	1032.7688582590924	-376.8379563094449	1203.3554957098402	1054.844462956487	-394.31696054941153	1206.0399134321303	1060.7610494790504	-422.5398789466508	1209.1485723581582	1061.0898234706563	-442.0464213035864	1212.8002521208248	1058.1203453516143	-458.18165121567705	1210.5449378562826	1043.9761898893846	-394.5552884036036	1237.581497977673	1044.0179866230676	-424.70150868769866	1247.6650597271612	1040.3188168561203	-450.14133107822414	1246.0340139090713	1039.0578961390102	-466.1871614536441	1239.3552109915902	1038.7149746632554	-479.6233710301416	1212.5594018037143	1033.4851523378018	-393.3157958835403	1240.0221671154027	1027.8523793082468	-422.0477941838795	1251.1925375841258	1022.4267781911358	-449.55194172850236	1249.3049555275077	1020.2389626497378	-468.7879156420147	1242.0361217300142	1019.5396998268033	-483.4298934521572	1213.394829614418	1026.0852465588644	-391.6305456042656	1239.0309875324256	1014.6517687881621	-415.799425356805	1248.8936115253232	1008.5117687611889	-439.465893711633	1247.1400391613406	1005.6521064851541	-457.85788308993335	1240.3373224166037	1004.6395312654718	-471.5479622286552	1212.7698253815154	1017.4522068930773	-389.1320290252171	1236.249296423956	1001.6871515535216	-409.63388140455123	1244.2317020705445	994.6188655330373	-428.00222863821847	1242.993648995538	991.492213735148	-441.13545835572046	1236.991147858285	989.9962435525782	-453.1003758281759	782.7224194621011	1206.5197376134324	-110.22790371666323	722.3001097181284	1122.080703981468	-75.55571764683523	916.7014888144106	1056.8059601758475	-178.3380121749177	1112.8400916570454	1028.1314554144308	-276.2996991788301	1127.5326963170182	1052.9482325738848	-284.97512665685207	1154.496148722083	1062.2075667052065	-276.36636006302916	1175.0749277519758	1064.9653231159155	-270.19024387473416	1193.7716430758082	1064.1072627941676	-264.8866659261713	1134.9959601794578	1042.718581647402	-286.9877222285378	1177.0216510033595	1048.1935877994877	-294.5714523677375	1208.096404259486	1048.1433123309887	-289.88502498617	1223.6910371654797	1048.57446319826	-281.06118324730176	1234.0864032149343	1049.243229680544	-269.77101871249454	1138.519766781225	1032.3071147442868	-285.7579533164889	1181.4158627485047	1032.0168079178209	-292.49256094358213	1215.655526262136	1030.5655938661062	-287.1794228859198	1234.628664927671	1030.4156927825632	-276.4381283024474	1246.0802713400583	1030.8217036983076	-264.0381345461131	1139.9384744554675	1024.827863695125	-284.7970991531535	1179.6180653419553	1018.1224461676998	-290.2955218098776	1209.7320955060568	1015.430632446137	-285.44912176914926	1228.1769028859821	1014.5282583901579	-274.9738553218637	1239.012395077521	1014.550912073234	-263.26050334225425	1140.3437303244098	1015.921675335819	-282.67037631755323	1177.006291083682	1004.3368798031784	-286.74540832472223	1201.3696388925127	999.9843206329926	-282.5037332480401	1214.943877504688	998.2633360505953	-274.68847114965575	1224.6117200088104	997.6717555617477	-264.21188513216924
133	1.1	1081.203	893.81699	129.612	1158.4130475916659	894.1730558585426	92.55560338562535	1047.1845491721658	493.1810272270429	47.51209600907875	1056.9923063826095	113.60128009015328	15.970370952420888	951.0061684642828	39.32520836140522	155.8582346238807	1015.5136654533723	867.2395996566007	180.88251469164854	908.5288606525647	479.65946186148125	297.2058556207793	789.8999959754622	86.33955981404348	456.229587643242	645.4641383820514	39.32921547795679	341.234172142211	1027.5428177587946	1014.6215063195062	75.60705899154696	972.9580025101758	1077.6526546695202	25.98841720788726	912.3117324250397	1137.592824029434	-28.325074431386593	849.5969740585501	1185.8603306804812	-84.65756845719119	780.82536128835	1238.5224674647975	-141.8797986603724	708.4947816042809	1279.6717778790899	-185.52116743432188	569.3211983989024	1356.6009863291524	-197.4562804363392	824.0102264322034	1233.6146332519575	-135.99361704217617	901.0863089074588	1279.6923330084344	-192.08702009127217	1019.9372984117252	1097.2969099378747	-272.53432446041904	1189.2854949520447	1033.2952596200525	-374.34088134314214	1201.3258081090632	1055.4698407585117	-391.6256654249531	1204.0368287758897	1061.497693711659	-419.6619148062498	1207.1609095693518	1061.9071497380567	-439.0412547742225	1210.8227869897044	1059.007671048455	-455.0728396897683	1208.4820197817262	1044.6238179666755	-391.8528818987344	1235.3866129002245	1044.8553964636626	-421.71002360889264	1245.4542605126385	1041.2792196120838	-446.9664105031167	1243.867769261624	1040.072459258373	-462.9280850797699	1237.2625718730728	1039.759309175234	-476.3147861165822	1210.4962350011442	1034.1344437758046	-390.6318956578595	1237.8301209752171	1028.6876729058906	-419.09195093573487	1248.983620504313	1023.3958916977224	-446.39932959239144	1247.150023010291	1021.2732115857426	-465.53539882380073	1239.9618401235064	1020.6064305166286	-480.1240069585902	1211.334029723889	1026.73101991619	-388.9668806907574	1236.8543599300601	1015.461627129278	-412.9089668784287	1246.702989108414	1009.4375452825965	-436.4078409458017	1245.0018744705774	1006.6403412621447	-454.70553575271157	1238.2751581098885	1005.6581314968071	-468.3464184852094	1210.7220230046914	1018.0872368272414	-386.50178396473234	1234.1004833406735	1002.4666326571988	-406.8153980308063	1242.0733024621582	995.4893402609681	-425.0566306125244	1240.8742982028089	992.4073610699035	-438.12451972494904	1234.9395778609742	990.9377781850741	-450.04781914880317	783.2675309926663	1207.0550953460001	-110.25320340880879	723.2845224338025	1123.4286120001357	-75.76072445166542	916.6230240497712	1057.9490952432918	-177.31916861511007	1111.4573400597528	1029.3298600449418	-274.0302508998222	1126.0782224137513	1054.116576139506	-282.6562358697713	1152.875088539105	1063.309082466394	-274.06812388741355	1173.3248220135022	1066.0186898135553	-267.90052774608523	1191.9027944907857	1065.1191178579165	-262.5990416097574	1133.4918785146967	1043.8810433260878	-284.63308377172257	1175.2675959795733	1049.2837152009465	-292.1090283563406	1206.1484766630088	1049.1689841979003	-287.40205168225197	1221.641675641635	1049.5592349076387	-278.608467763546	1231.9659646937148	1050.1936021139486	-267.37237501765907	1136.9879556140866	1033.4670523074203	-283.3937124508266	1179.625251253846	1033.104825312336	-290.0179664724352	1213.650491582484	1031.583162666306	-284.68156320533683	1232.4998762015646	1031.3838696694593	-273.97635917622137	1243.8730340703942	1031.752204389796	-261.6353279168858	1138.393518010042	1025.9879764967704	-282.4282067940398	1177.8299599289603	1019.2186064955677	-287.8219054585249	1207.7545797044982	1016.4653762365923	-282.95453460290685	1226.0786710187026	1015.5153547448288	-272.5137216153371	1236.8397600446185	1015.5025884356908	-260.85564275408944	1138.7903508742752	1017.0831631243386	-280.304071194081	1175.2248350455907	1005.4409286495966	-284.2825588196696	1199.4336228358432	1001.0394503664776	-280.0234817609198	1212.9184124093988	999.2838411466171	-272.233054684743	1222.5195499507481	998.6609554829207	-261.8052598096457
134	1.108	1081.203	893.81699	129.612	1157.837489725389	893.8336084726075	92.43582725168174	1046.7894509451667	492.7923714718862	47.66015801668272	1057.594719746296	113.67395051443448	15.198425537437897	951.9606820403995	39.14495856973527	155.07877249442322	1016.0679106122908	867.5699334795826	181.0054279629813	909.053813518769	479.9486037128622	297.14287949156966	790.4534723025052	86.43792155986733	455.46201740741424	646.0337211376107	39.20817044121349	340.56251450631714	1027.7049173152332	1014.6632932912835	75.54518217108748	973.1860266081613	1077.7592399952928	25.933534315048146	912.6002403803501	1137.779182481445	-28.360937602542272	849.9265835712492	1186.141734336495	-84.65600632386295	781.2035425934249	1238.8992283708537	-141.84756085135123	708.9548129756574	1280.1677816067668	-185.486637830207	569.7804786609988	1357.0859080355665	-197.41465242258423	824.2125704974085	1233.7761860629607	-135.94488189763848	900.6845763904919	1279.240445939765	-191.6948696979412	1019.356282019767	1097.6848102627025	-270.8826786065499	1187.2924533130038	1033.9659544772462	-371.7771471011073	1199.3747892762478	1056.1340495293705	-388.93951541471677	1202.1436180017138	1062.1660448942753	-416.81273214357776	1205.2866706924938	1062.5740197801815	-436.0740573413567	1208.9461508920276	1059.6695885005827	-452.00343422759147	1206.4500579231835	1045.2690199205624	-389.13978711279987	1233.2530148289347	1045.4574944313117	-418.75067543544725	1243.295316790841	1041.8661363059346	-443.83398647872303	1241.7432072280235	1040.6649776996876	-459.70986750599076	1235.200282474116	1040.3665972282295	-473.0402698423515	1208.4120695614429	1034.769995545894	-387.91512929048116	1235.618588375031	1029.2759540602954	-416.132998664329	1246.7379241171707	1023.9664875627599	-443.251824337926	1244.9426830462303	1021.8500264957157	-462.2845472282031	1237.82112276753	1021.1991511026313	-476.8116181397843	1209.214960306509	1027.3606567726963	-386.2537380791938	1234.5890249827687	1016.0432297711974	-409.981751502678	1244.4014482265225	1010.0026712098866	-433.31698209124386	1242.733907519346	1007.2109031163055	-451.51535858726226	1236.0682219771932	1006.2433793883141	-465.09856490057143	1208.5705582510097	1018.7128071919002	-383.80042805997425	1231.7927786936727	1003.0449684659652	-403.92469132597176	1239.7272092028263	996.0530416712578	-422.03691803705567	1238.5481414647984	992.974321050364	-435.03333305102245	1232.6648580850142	991.5173383449426	-446.90610715132334	783.7872111396506	1207.591499707807	-110.24839111611281	724.2664915516685	1124.7971920821572	-75.83746572883778	916.4987721434412	1058.939812976324	-176.1614292161307	1109.8908011234987	1029.480445019849	-272.2381792432802	1124.3781287274755	1054.2643105284826	-280.7716988672774	1150.9539051705679	1063.4235722786739	-272.16273974477934	1171.24376012526	1066.112447381245	-265.9740543877802	1189.6834067520736	1065.1976694050377	-260.64938656502886	1131.7627906435591	1044.0411466973653	-282.7051745205445	1173.249095070351	1049.4503108010442	-289.9985192117694	1203.9049936075842	1049.319074954586	-285.2252840479497	1219.27263765811	1049.6850570212046	-276.4433955805017	1229.5026620671651	1050.2898754194216	-265.25267061092325	1135.2517834733183	1033.6325223558233	-281.457221617768	1177.602956223568	1033.279547119241	-287.8987156438144	1211.3826681463054	1031.7405361840872	-282.48954212979595	1230.0805634975397	1031.5122711411198	-271.7982294943669	1241.3505671842734	1031.8484350043323	-259.50673005560895	1136.6598595361247	1026.1573163639496	-280.48961019380795	1175.842489849172	1019.400255482201	-285.71564916230204	1205.5535252349002	1016.6325688599982	-280.7846855919952	1223.7317085413147	1015.6549560418197	-270.3571695439042	1234.3959374780525	1015.6120940713768	-258.7456094667613	1137.0668478427642	1017.2549333035164	-278.37383446025416	1173.2751916716718	1005.6262787126605	-282.20130611239483	1197.314703860082	1001.2141992101983	-277.89175335282243	1210.693927744674	999.4389323376134	-270.1112512068104	1220.2097370705724	998.7896652104266	-259.72478642376456
